
CASCADE Topology V1, (c) Matra-Datavision
Locations 8
1
1.000000000000000 0.000000000000000 0.000000000000000 0.000000000000000 
0.000000000000000 1.000000000000000 0.000000000000000 0.000000000000000 
0.000000000000000 0.000000000000000 1.000000000000000 0.000000000000000 
1
1.000000000000000 0.000000000000000 0.000000000000000 0.000000000000000 
0.000000000000000 -0.000000000000000 -1.000000000000000 0.000000000000000 
0.000000000000000 1.000000000000000 -0.000000000000000 0.000000000000000 
2  2 -1 0
1
1.000000000000000 0.000000000000000 0.000000000000000 0.000000000000000 
0.000000000000000 -0.000000000000000 -1.000000000000000 0.000000000000000 
0.000000000000000 1.000000000000000 -0.000000000000000 0.000000000000000 
1
1.000000000000000 0.000000000000000 0.000000000000000 0.000000000000000 
0.000000000000000 -0.000000000000000 -1.000000000000000 0.000000000000000 
0.000000000000000 1.000000000000000 -0.000000000000000 0.000000000000000 
2  4 1 5 -1 0
2  5 1 4 -1 0
2  2 -1 5 1 4 -1 0
Curve2ds 12
1 0.00000000000000000 0.00000000000000000 1.00000000000000000 0.00000000000000000 
1 0.00000000000000000 30.00000000000000000 1.00000000000000000 0.00000000000000000 
1 0.00000000000000000 1.00004999875006262 1.00000000000000000 0.00000000000000000 
1 6.28318530717958623 0.00000000000000000 0.00000000000000000 1.00000000000000000 
1 0.00000000000000000 0.00000000000000000 0.00000000000000000 1.00000000000000000 
1 0.00000000000000000 0.00000000000000000 1.00000000000000000 0.00000000000000000 
1 0.00000000000000000 20.01000000000000156 1.00000000000000000 0.00000000000000000 
1 6.28318530717958623 0.00000000000000000 0.00000000000000000 1.00000000000000000 
1 0.00000000000000000 0.00000000000000000 0.00000000000000000 1.00000000000000000 
1 0.00000000000000000 0.00000000000000000 1.00000000000000000 0.00000000000000000 
1 6.28318530717958623 0.00000000000000000 0.00000000000000000 1.00000000000000000 
1 0.00000000000000000 0.00000000000000000 0.00000000000000000 1.00000000000000000 
Curves 7
2 0.00000000000000000 0.00000000000000000 0.00000000000000000 0.00000000000000000 0.00000000000000022 -1.00000000000000000 1.00000000000000000 0.00000000000000000 0.00000000000000000 0.00000000000000000 -1.00000000000000000 -0.00000000000000022 2.50000000000000000
2 0.00000000000000000 -0.00000000000000666 30.00000000000000000 0.00000000000000000 0.00000000000000022 -1.00000000000000000 1.00000000000000000 0.00000000000000000 0.00000000000000000 0.00000000000000000 -1.00000000000000000 -0.00000000000000022 2.50000000000000000
1 2.50000000000000000 0.00000000000000000 0.00000000000000000 0.00000000000000000 -0.00000000000000022 1.00000000000000000 
2 0.00000000000000000 -0.00000000000000666 29.98999999999999844 0.00000000000000000 0.00000000000000022 -1.00000000000000000 1.00000000000000000 0.00000000000000000 0.00000000000000000 0.00000000000000000 -1.00000000000000000 -0.00000000000000022 1.50000000000000000
1 1.50000000000000000 -0.00000000000000666 29.98999999999999844 0.99995000374968757 -0.00000000000000000 0.00999950003749844 
2 0.00000000000000000 -0.00000000000001110 50.00000000000000000 0.00000000000000000 0.00000000000000022 -1.00000000000000000 1.00000000000000000 0.00000000000000000 0.00000000000000000 0.00000000000000000 -1.00000000000000000 -0.00000000000000022 1.50000000000000000
1 1.50000000000000000 -0.00000000000001110 50.00000000000000000 0.00000000000000000 0.00000000000000022 -1.00000000000000000 
Polygon3D 0
PolygonOnTriangulations 0
Surfaces 5
1 0.00000000000000000 0.00000000000000000 0.00000000000000000 -0.00000000000000000 0.00000000000000022 -1.00000000000000000 -1.00000000000000000 0.00000000000000000 0.00000000000000000 -0.00000000000000000 -1.00000000000000000 -0.00000000000000022 
2 0.00000000000000000 0.00000000000000000 0.00000000000000000 0.00000000000000000 -0.00000000000000022 1.00000000000000000 1.00000000000000000 0.00000000000000000 0.00000000000000000 0.00000000000000000 -1.00000000000000000 -0.00000000000000022 2.50000000000000000
3 0.00000000000000000 -0.00000000000000666 29.98999999999999844 0.00000000000000000 -0.00000000000000022 1.00000000000000000 1.00000000000000000 0.00000000000000000 0.00000000000000000 0.00000000000000000 -1.00000000000000000 -0.00000000000000022 1.50000000000000000
1.56079666010822993
2 0.00000000000000000 -0.00000000000001110 50.00000000000000000 -0.00000000000000000 0.00000000000000022 -1.00000000000000000 1.00000000000000000 0.00000000000000000 0.00000000000000000 0.00000000000000000 -1.00000000000000000 -0.00000000000000022 1.50000000000000000
1 0.00000000000000000 -0.00000000000001110 50.00000000000000000 -0.00000000000000000 0.00000000000000022 -1.00000000000000000 1.00000000000000000 0.00000000000000000 0.00000000000000000 0.00000000000000000 -1.00000000000000000 -0.00000000000000022 
Triangulations 0

TShapes 23
Ve
0.000000100000000
2.500000000000000 0.000000000000000 0.000000000000000
0 0

0101101
*
Ed
 0.000000100000000 1 1 0
1  1 0 0.000000000000000 6.283185307179586
2  1 2 0 0.000000000000000 6.283185307179586
0

0101000
+23 3 -23 3 *
Wi

0101100
-22 0 *
Fa
0  0.000000100000000 1 0

0111000
+21 0 *
Ve
0.000000100000000
2.500000000000000 -30.000000000000000 -0.000000000000013
0 0

0101101
*
Ed
 0.000000100000000 1 1 0
1  2 0 0.000000000000000 6.283185307179586
2  2 2 0 0.000000000000000 6.283185307179586
2  3 3 0 0.000000000000000 6.283185307179586
0

0101000
+19 3 -19 3 *
Ed
 0.000000100000000 1 1 0
1  3 0 0.000000000000000 30.000000000000000
3  4 5CN 2 7 0.000000000000000 30.000000000000000
0

0101000
+23 8 -19 8 *
Wi

0101100
+22 0 -18 0 -17 6 +17 6 *
Fa
0  0.000000100000000 2 0

0111000
+16 0 *
Ve
0.000000100000000
1.500000000000000 -29.989999999999998 -0.000000000000013
0 0

0101101
*
Ed
 0.000000100000000 1 1 0
1  4 0 0.000000000000000 6.283185307179586
2  6 3 0 0.000000000000000 6.283185307179586
2  7 4 0 0.000000000000000 6.283185307179586
0

0101000
+14 3 -14 3 *
Ed
 0.000000100000000 1 1 0
1  5 0 0.000000000000000 1.000049998750062
3  8 9CN 3 7 0.000000000000000 1.000049998750062
0

0101000
+14 8 -19 8 *
Wi

0101100
+13 0 -18 0 -12 6 +12 6 *
Fa
0  0.000000100000000 3 0

0111000
+11 0 *
Ve
0.000000100000000
1.500000000000000 -50.000000000000000 -0.000000000000022
0 0

0101101
*
Ed
 0.000000100000000 1 1 0
1  6 0 0.000000000000000 6.283185307179586
2  10 4 0 0.000000000000000 6.283185307179586
0

0101000
+9 3 -9 3 *
Ed
 0.000000100000000 1 1 0
1  7 0 0.000000000000000 20.010000000000002
3  11 12CN 4 7 0.000000000000000 20.010000000000002
0

0101000
+9 8 -14 8 *
Wi

0101100
+8 0 -13 0 -7 6 +7 6 *
Fa
0  0.000000100000000 4 0

0111000
+6 0 *
Wi

0101100
+8 0 *
Fa
0  0.000000100000000 5 0

0111000
+4 0 *
Sh

0101100
+20 0 +15 0 -10 0 -5 0 +3 0 *
So

1100000
-2 0 *

+1 1 