999
FreeCAD v0.20 29177 (Git)
  0
SECTION
  2
HEADER
  9
$ACADVER
  1
AC1014
  9
$ACADMAINTVER
 70
     9
  9
$DWGCODEPAGE
  3
ANSI_1252
  9
$TEXTSTYLE
  7
STANDARD
  9
$DIMSTYLE
  2
STANDARD
  9
$DIMTXSTY
  7
STANDARD
  9
$CMLSTYLE
  2
STANDARD
  9
$LUNITS
 70
2
  9
$INSUNITS
 70
4
  9
$PEXTMAX
 10
50
 20
50
 30
50
  9
$PEXTMIN
 10
0
 20
0
 30
0
  9
$HANDSEED
  5
FFFF
  0
ENDSEC
  0
SECTION
  2
CLASSES
  0
CLASS
  1
ACDBDICTIONARYWDFLT
  2
AcDbDictionaryWithDefault
  3
ObjectDBX Classes
 90
        0
280
     0
281
     0
  0
CLASS
  1
XRECORD
  2
AcDbXrecord
  3
ObjectDBX Classes
 90
        0
280
     0
281
     0
  0
CLASS
  1
LWPOLYLINE
  2
AcDbPolyline
  3
ObjectDBX Classes
 90
        0
280
     0
281
     1
  0
ENDSEC
  0
SECTION
  2
TABLES
  0
TABLE
  2
VPORT
  5
20
330
0
100
AcDbSymbolTable
 70
     1
  0
VPORT
  5
21
330
20
100
AcDbSymbolTableRecord
100
AcDbViewportTableRecord
  2
*ACTIVE
 70
     0
  0
ENDTAB
  0
TABLE
  2
LTYPE
  5
22
330
0
100
AcDbSymbolTable
 70
     1
  0
LTYPE
  5
23
330
21
100
AcDbSymbolTableRecord
100
AcDbLinetypeTableRecord
  2
BYBLOCK
 70
     0
  3

 72
    65
 73
     0
 40
0.0
  0
LTYPE
  5
24
330
21
100
AcDbSymbolTableRecord
100
AcDbLinetypeTableRecord
  2
BYLAYER
 70
     0
  3

 72
    65
 73
     0
 40
0.0
  0
LTYPE
  5
25
330
21
100
AcDbSymbolTableRecord
100
AcDbLinetypeTableRecord
  2
CONTINUOUS
 70
     0
  3
Solid line
 72
    65
 73
     0
 40
0.0
  0
ENDTAB
  0
TABLE
  2
LAYER
  5
B0F
330
0
100
AcDbSymbolTable
 70
3
  0
LAYER
  5
B10
330
B0F
100
AcDbSymbolTableRecord
100
AcDbLayerTableRecord
  2
0
 70
   0
 62
   7
  6
CONTINUOUS
  0
LAYER
  5
B11
330
B0F
100
AcDbSymbolTableRecord
100
AcDbLayerTableRecord
  2
none
 70
    0
 62
    7
  6
CONTINUOUS
  0
LAYER
  5
B12
330
B0F
100
AcDbSymbolTableRecord
100
AcDbLayerTableRecord
  2
Sketch001
 70
    0
 62
    7
  6
CONTINUOUS
  0
ENDTAB
  0
TABLE
  2
STYLE
  5
70
330
0
100
AcDbSymbolTable
 70
     2
  0
STYLE
  5
71
330
70
100
AcDbSymbolTableRecord
100
AcDbTextStyleTableRecord
  2
STANDARD
 70
     0
 40
0.0
 41
1.0
 50
0.0
 71
     0
 42
2.5
  3
arial.ttf
  4

  0
STYLE
  5
72
330
70
100
AcDbSymbolTableRecord
100
AcDbTextStyleTableRecord
  2
ANNOTATIVE
 70
     0
 40
0.0
 41
1.0
 50
0.0
 71
     0
 42
2.5
  3
arial.ttf
  4

  0
ENDTAB
  0
TABLE
  2
VIEW
  5
73
330
0
100
AcDbSymbolTable
 70
     0
  0
ENDTAB
  0
TABLE
  2
UCS
  5
74
330
0
100
AcDbSymbolTable
 70
     0
  0
ENDTAB
  0
TABLE
  2
APPID
  5
75
330
0
100
AcDbSymbolTable
 70
     2
  0
APPID
  5
76
330
75
100
AcDbSymbolTableRecord
100
AcDbRegAppTableRecord
  2
ACAD
 70
     0
  0
APPID
  5
77
330
75
100
AcDbSymbolTableRecord
100
AcDbRegAppTableRecord
  2
ACADANNOTATIVE
 70
     0
  0
ENDTAB
  0
TABLE
  2
DIMSTYLE
  5
78
330
0
100
AcDbSymbolTable
 70
     2
  0
DIMSTYLE
105
79
330
78
100
AcDbSymbolTableRecord
100
AcDbDimStyleTableRecord
  2
STANDARD
 70
     0
  3

  4

  5

  6

  7

 40
0.0
 41
2.5
 42
0.625
 43
3.75
 44
1.25
 45
0.0
 46
0.0
 47
0.0
 48
0.0
140
2.5
141
2.5
142
0.0
143
0.03937007874016
144
1.0
145
0.0
146
1.0
147
0.625
 71
     0
 72
     0
 73
     0
 74
     0
 75
     0
 76
     0
 77
     1
 78
     8
170
     0
171
     3
172
     1
173
     0
174
     0
175
     0
176
     0
177
     0
178
     0
270
     2
271
     2
272
     2
273
     2
274
     3
340
71
275
     0
280
     0
281
     0
282
     0
283
     0
284
     8
285
     0
286
     0
287
     3
288
     0
  0
ENDTAB
  0
TABLE
  2
BLOCK_RECORD
  5
A01
330
0
100
AcDbSymbolTable
  70
5
  0
BLOCK_RECORD
  5
A02
330
A01
100
AcDbSymbolTableRecord
100
AcDbBlockTableRecord
  2
*MODEL_SPACE
  0
BLOCK_RECORD
  5
A03
330
A01
100
AcDbSymbolTableRecord
100
AcDbBlockTableRecord
  2
*PAPER_SPACE
  0
ENDTAB
  0
ENDSEC
  0
SECTION
  2
BLOCKS
  0
BLOCK
  5
A04
330
A02
100
AcDbEntity
  8
0
100
AcDbBlockBegin
  2
*MODEL_SPACE
 70
   0
 10
0
 20
0
 30
0
  3
*MODEL_SPACE
  1
 
  0
ENDBLK
  5
A05
330
A02
100
AcDbEntity
  8
0
100
AcDbBlockEnd
  0
BLOCK
  5
A06
330
A03
100
AcDbEntity
 67
1
  8
0
100
AcDbBlockBegin
  2
*PAPER_SPACE
 70
   0
 10
0
 20
0
 30
0
  3
*PAPER_SPACE
  1
 
  0
ENDBLK
  5
A07
330
A03
100
AcDbEntity
 67
    1
  8
0
100
AcDbBlockEnd
  0
ENDSEC
  0
SECTION
  2
ENTITIES
  0
LINE
  5
A08
330
A02
100
AcDbEntity
  8
Sketch001
100
AcDbLine
 10
1.49122
 20
12
 30
0
 11
6.84915
 21
12
 31
0
  0
ARC
  5
A09
330
A02
100
AcDbEntity
  8
Sketch001
100
AcDbCircle
 10
6.84915
 20
13.1508
 30
0
 40
1.15085
100
AcDbArc
 50
-90
 51
0
  0
LINE
  5
A0A
330
A02
100
AcDbEntity
  8
Sketch001
100
AcDbLine
 10
8
 20
13.1508
 30
0
 11
8
 21
15.0908
 31
0
  0
ARC
  5
A0B
330
A02
100
AcDbEntity
  8
Sketch001
100
AcDbCircle
 10
7.09082
 20
15.0908
 30
0
 40
0.909176
100
AcDbArc
 50
0
 51
90
  0
LINE
  5
A0C
330
A02
100
AcDbEntity
  8
Sketch001
100
AcDbLine
 10
7.09082
 20
16
 30
0
 11
0
 21
16
 31
0
  0
LINE
  5
A0D
330
A02
100
AcDbEntity
  8
Sketch001
100
AcDbLine
 10
0
 20
16
 30
0
 11
0
 21
20
 31
0
  0
LINE
  5
A0E
330
A02
100
AcDbEntity
  8
Sketch001
100
AcDbLine
 10
0
 20
20
 30
0
 11
10
 21
20
 31
0
  0
ARC
  5
A0F
330
A02
100
AcDbEntity
  8
Sketch001
100
AcDbCircle
 10
10
 20
18
 30
0
 40
2
100
AcDbArc
 50
0
 51
90
  0
LINE
  5
A10
330
A02
100
AcDbEntity
  8
Sketch001
100
AcDbLine
 10
12
 20
18
 30
0
 11
12
 21
9.25058
 31
0
  0
ARC
  5
A11
330
A02
100
AcDbEntity
  8
Sketch001
100
AcDbCircle
 10
10.7494
 20
9.25058
 30
0
 40
1.25058
100
AcDbArc
 50
-90
 51
0
  0
LINE
  5
A12
330
A02
100
AcDbEntity
  8
Sketch001
100
AcDbLine
 10
10.7494
 20
8
 30
0
 11
5.07244
 21
8
 31
0
  0
ARC
  5
A13
330
A02
100
AcDbEntity
  8
Sketch001
100
AcDbCircle
 10
5.07244
 20
6.92756
 30
0
 40
1.07244
100
AcDbArc
 50
90
 51
180
  0
LINE
  5
A14
330
A02
100
AcDbEntity
  8
Sketch001
100
AcDbLine
 10
4
 20
6.92756
 30
0
 11
4
 21
4.95953
 31
0
  0
ARC
  5
A15
330
A02
100
AcDbEntity
  8
Sketch001
100
AcDbCircle
 10
4.95953
 20
4.95953
 30
0
 40
0.959526
100
AcDbArc
 50
180
 51
-90
  0
LINE
  5
A16
330
A02
100
AcDbEntity
  8
Sketch001
100
AcDbLine
 10
4.95953
 20
4
 30
0
 11
12
 21
4
 31
0
  0
LINE
  5
A17
330
A02
100
AcDbEntity
  8
Sketch001
100
AcDbLine
 10
12
 20
4
 30
0
 11
12
 21
0
 31
0
  0
LINE
  5
A18
330
A02
100
AcDbEntity
  8
Sketch001
100
AcDbLine
 10
12
 20
0
 30
0
 11
2.45259
 21
0
 31
0
  0
ARC
  5
A19
330
A02
100
AcDbEntity
  8
Sketch001
100
AcDbCircle
 10
2.45259
 20
2.45259
 30
0
 40
2.45259
100
AcDbArc
 50
180
 51
-90
  0
LINE
  5
A1A
330
A02
100
AcDbEntity
  8
Sketch001
100
AcDbLine
 10
0
 20
2.45259
 30
0
 11
0
 21
4
 31
0
  0
LINE
  5
A1B
330
A02
100
AcDbEntity
  8
Sketch001
100
AcDbLine
 10
0
 20
4
 30
0
 11
0
 21
10.5088
 31
0
  0
ARC
  5
A1C
330
A02
100
AcDbEntity
  8
Sketch001
100
AcDbCircle
 10
1.49122
 20
10.5088
 30
0
 40
1.49122
100
AcDbArc
 50
90
 51
180
  0
LINE
  5
A1D
330
A02
100
AcDbEntity
  8
Sketch001
100
AcDbLine
 10
20
 20
12.4531
 30
0
 11
20
 21
20
 31
0
  0
LINE
  5
A1E
330
A02
100
AcDbEntity
  8
Sketch001
100
AcDbLine
 10
20
 20
20
 30
0
 11
16
 21
20
 31
0
  0
LINE
  5
A1F
330
A02
100
AcDbEntity
  8
Sketch001
100
AcDbLine
 10
16
 20
20
 30
0
 11
16
 21
9.34516
 31
0
  0
ARC
  5
A20
330
A02
100
AcDbEntity
  8
Sketch001
100
AcDbCircle
 10
17.3452
 20
9.34516
 30
0
 40
1.34516
100
AcDbArc
 50
180
 51
-90
  0
LINE
  5
A21
330
A02
100
AcDbEntity
  8
Sketch001
100
AcDbLine
 10
17.3452
 20
8
 30
0
 11
21.1196
 21
8
 31
0
  0
ARC
  5
A22
330
A02
100
AcDbEntity
  8
Sketch001
100
AcDbCircle
 10
21.1196
 20
7.11962
 30
0
 40
0.880383
100
AcDbArc
 50
0
 51
90
  0
LINE
  5
A23
330
A02
100
AcDbEntity
  8
Sketch001
100
AcDbLine
 10
22
 20
7.11962
 30
0
 11
22
 21
0
 31
0
  0
LINE
  5
A24
330
A02
100
AcDbEntity
  8
Sketch001
100
AcDbLine
 10
22
 20
0
 30
0
 11
26
 21
0
 31
0
  0
LINE
  5
A25
330
A02
100
AcDbEntity
  8
Sketch001
100
AcDbLine
 10
26
 20
0
 30
0
 11
26
 21
7.2553
 31
0
  0
ARC
  5
A26
330
A02
100
AcDbEntity
  8
Sketch001
100
AcDbCircle
 10
26.7447
 20
7.2553
 30
0
 40
0.744701
100
AcDbArc
 50
90
 51
180
  0
LINE
  5
A27
330
A02
100
AcDbEntity
  8
Sketch001
100
AcDbLine
 10
26.7447
 20
8
 30
0
 11
28
 21
8
 31
0
  0
LINE
  5
A28
330
A02
100
AcDbEntity
  8
Sketch001
100
AcDbLine
 10
28
 20
8
 30
0
 11
28
 21
12
 31
0
  0
LINE
  5
A29
330
A02
100
AcDbEntity
  8
Sketch001
100
AcDbLine
 10
28
 20
12
 30
0
 11
26.823
 21
12
 31
0
  0
ARC
  5
A2A
330
A02
100
AcDbEntity
  8
Sketch001
100
AcDbCircle
 10
26.823
 20
12.823
 30
0
 40
0.823
100
AcDbArc
 50
180
 51
-90
  0
LINE
  5
A2B
330
A02
100
AcDbEntity
  8
Sketch001
100
AcDbLine
 10
26
 20
12.823
 30
0
 11
26
 21
16
 31
0
  0
LINE
  5
A2C
330
A02
100
AcDbEntity
  8
Sketch001
100
AcDbLine
 10
26
 20
16
 30
0
 11
22
 21
16
 31
0
  0
LINE
  5
A2D
330
A02
100
AcDbEntity
  8
Sketch001
100
AcDbLine
 10
22
 20
16
 30
0
 11
22
 21
12.9231
 31
0
  0
ARC
  5
A2E
330
A02
100
AcDbEntity
  8
Sketch001
100
AcDbCircle
 10
21.0769
 20
12.9231
 30
0
 40
0.923073
100
AcDbArc
 50
-90
 51
0
  0
LINE
  5
A2F
330
A02
100
AcDbEntity
  8
Sketch001
100
AcDbLine
 10
21.0769
 20
12
 30
0
 11
20.4531
 21
12
 31
0
  0
ARC
  5
A30
330
A02
100
AcDbEntity
  8
Sketch001
100
AcDbCircle
 10
20.4531
 20
12.4531
 30
0
 40
0.453074
100
AcDbArc
 50
180
 51
-90
  0
LINE
  5
A31
330
A02
100
AcDbEntity
  8
Sketch001
100
AcDbLine
 10
36
 20
15.2955
 30
0
 11
36
 21
12.543
 31
0
  0
ARC
  5
A32
330
A02
100
AcDbEntity
  8
Sketch001
100
AcDbCircle
 10
36.543
 20
12.543
 30
0
 40
0.543018
100
AcDbArc
 50
180
 51
-90
  0
LINE
  5
A33
330
A02
100
AcDbEntity
  8
Sketch001
100
AcDbLine
 10
36.543
 20
12
 30
0
 11
39.4373
 21
12
 31
0
  0
ARC
  5
A34
330
A02
100
AcDbEntity
  8
Sketch001
100
AcDbCircle
 10
39.4373
 20
12.5627
 30
0
 40
0.562687
100
AcDbArc
 50
-90
 51
0
  0
LINE
  5
A35
330
A02
100
AcDbEntity
  8
Sketch001
100
AcDbLine
 10
40
 20
12.5627
 30
0
 11
40
 21
15.3595
 31
0
  0
ARC
  5
A36
330
A02
100
AcDbEntity
  8
Sketch001
100
AcDbCircle
 10
39.3595
 20
15.3595
 30
0
 40
0.640525
100
AcDbArc
 50
0
 51
90
  0
LINE
  5
A37
330
A02
100
AcDbEntity
  8
Sketch001
100
AcDbLine
 10
39.3595
 20
16
 30
0
 11
36.7045
 21
16
 31
0
  0
ARC
  5
A38
330
A02
100
AcDbEntity
  8
Sketch001
100
AcDbCircle
 10
36.7045
 20
15.2955
 30
0
 40
0.704459
100
AcDbArc
 50
90
 51
180
  0
LINE
  5
A39
330
A02
100
AcDbEntity
  8
Sketch001
100
AcDbLine
 10
36
 20
4.73377
 30
0
 11
36
 21
7.24846
 31
0
  0
ARC
  5
A3A
330
A02
100
AcDbEntity
  8
Sketch001
100
AcDbCircle
 10
36.7515
 20
7.24846
 30
0
 40
0.751537
100
AcDbArc
 50
90
 51
180
  0
LINE
  5
A3B
330
A02
100
AcDbEntity
  8
Sketch001
100
AcDbLine
 10
36.7515
 20
8
 30
0
 11
39.2527
 21
8
 31
0
  0
ARC
  5
A3C
330
A02
100
AcDbEntity
  8
Sketch001
100
AcDbCircle
 10
39.2527
 20
7.2527
 30
0
 40
0.747303
100
AcDbArc
 50
0
 51
90
  0
LINE
  5
A3D
330
A02
100
AcDbEntity
  8
Sketch001
100
AcDbLine
 10
40
 20
7.2527
 30
0
 11
40
 21
4.67104
 31
0
  0
ARC
  5
A3E
330
A02
100
AcDbEntity
  8
Sketch001
100
AcDbCircle
 10
39.329
 20
4.67104
 30
0
 40
0.671044
100
AcDbArc
 50
-90
 51
0
  0
LINE
  5
A3F
330
A02
100
AcDbEntity
  8
Sketch001
100
AcDbLine
 10
39.329
 20
4
 30
0
 11
36.7338
 21
4
 31
0
  0
ARC
  5
A40
330
A02
100
AcDbEntity
  8
Sketch001
100
AcDbCircle
 10
36.7338
 20
4.73377
 30
0
 40
0.733773
100
AcDbArc
 50
180
 51
-90
  0
ARC
  5
A41
330
A02
100
AcDbEntity
  8
Sketch001
100
AcDbCircle
 10
33.536
 20
1.53595
 30
0
 40
1.53595
100
AcDbArc
 50
180
 51
-90
  0
LINE
  5
A42
330
A02
100
AcDbEntity
  8
Sketch001
100
AcDbLine
 10
33.536
 20
4.39848e-12
 30
0
 11
42.6795
 21
-1.59203e-10
 31
0
  0
ARC
  5
A43
330
A02
100
AcDbEntity
  8
Sketch001
100
AcDbCircle
 10
42.6795
 20
1.32053
 30
0
 40
1.32053
100
AcDbArc
 50
-90
 51
-9.63415e-15
  0
LINE
  5
A44
330
A02
100
AcDbEntity
  8
Sketch001
100
AcDbLine
 10
44
 20
1.32053
 30
0
 11
44
 21
2
 31
0
  0
LINE
  5
A45
330
A02
100
AcDbEntity
  8
Sketch001
100
AcDbLine
 10
44
 20
2
 30
0
 11
44
 21
7.14191
 31
0
  0
ARC
  5
A46
330
A02
100
AcDbEntity
  8
Sketch001
100
AcDbCircle
 10
41.9284
 20
7.14191
 30
0
 40
2.0716
100
AcDbArc
 50
0
 51
45
  0
LINE
  5
A47
330
A02
100
AcDbEntity
  8
Sketch001
100
AcDbLine
 10
43.3932
 20
8.60676
 30
0
 11
42.5583
 21
9.44166
 31
0
  0
ARC
  5
A48
330
A02
100
AcDbEntity
  8
Sketch001
100
AcDbCircle
 10
43.1167
 20
10
 30
0
 40
0.789608
100
AcDbArc
 50
135
 51
-135
  0
LINE
  5
A49
330
A02
100
AcDbEntity
  8
Sketch001
100
AcDbLine
 10
42.5583
 20
10.5583
 30
0
 11
43.3851
 21
11.3851
 31
0
  0
ARC
  5
A4A
330
A02
100
AcDbEntity
  8
Sketch001
100
AcDbCircle
 10
41.9006
 20
12.8696
 30
0
 40
2.09943
100
AcDbArc
 50
-45
 51
0
  0
LINE
  5
A4B
330
A02
100
AcDbEntity
  8
Sketch001
100
AcDbLine
 10
44
 20
12.8696
 30
0
 11
44
 21
17.3502
 31
0
  0
ARC
  5
A4C
330
A02
100
AcDbEntity
  8
Sketch001
100
AcDbCircle
 10
42.4311
 20
17.3502
 30
0
 40
1.56885
100
AcDbArc
 50
0
 51
45
  0
LINE
  5
A4D
330
A02
100
AcDbEntity
  8
Sketch001
100
AcDbLine
 10
43.5405
 20
18.4595
 30
0
 11
42.9915
 21
19.0085
 31
0
  0
ARC
  5
A4E
330
A02
100
AcDbEntity
  8
Sketch001
100
AcDbCircle
 10
40.5978
 20
16.6148
 30
0
 40
3.38519
100
AcDbArc
 50
45
 51
90
  0
LINE
  5
A4F
330
A02
100
AcDbEntity
  8
Sketch001
100
AcDbLine
 10
40.5978
 20
20
 30
0
 11
34.3938
 21
20
 31
0
  0
ARC
  5
A50
330
A02
100
AcDbEntity
  8
Sketch001
100
AcDbCircle
 10
34.3938
 20
19.0492
 30
0
 40
0.950788
100
AcDbArc
 50
90
 51
135.001
  0
LINE
  5
A51
330
A02
100
AcDbEntity
  8
Sketch001
100
AcDbLine
 10
33.7215
 20
19.7215
 30
0
 11
32.5715
 21
18.5715
 31
0
  0
ARC
  5
A52
330
A02
100
AcDbEntity
  8
Sketch001
100
AcDbCircle
 10
33.9513
 20
17.1918
 30
0
 40
1.95123
100
AcDbArc
 50
135.001
 51
180
  0
LINE
  5
A53
330
A02
100
AcDbEntity
  8
Sketch001
100
AcDbLine
 10
32
 20
17.1918
 30
0
 11
32
 21
12.6051
 31
0
  0
ARC
  5
A54
330
A02
100
AcDbEntity
  8
Sketch001
100
AcDbCircle
 10
33.4602
 20
12.6051
 30
0
 40
1.46019
100
AcDbArc
 50
180
 51
-134.98
  0
LINE
  5
A55
330
A02
100
AcDbEntity
  8
Sketch001
100
AcDbLine
 10
32.4281
 20
11.5722
 30
0
 11
33.4705
 21
10.5305
 31
0
  0
ARC
  5
A56
330
A02
100
AcDbEntity
  8
Sketch001
100
AcDbCircle
 10
32.9408
 20
10.0005
 30
0
 40
0.749328
100
AcDbArc
 50
-45
 51
45.0198
  0
LINE
  5
A57
330
A02
100
AcDbEntity
  8
Sketch001
100
AcDbLine
 10
33.4706
 20
9.47065
 30
0
 11
32.6263
 21
8.62634
 31
0
  0
ARC
  5
A58
330
A02
100
AcDbEntity
  8
Sketch001
100
AcDbCircle
 10
34.1385
 20
7.11422
 30
0
 40
2.13846
100
AcDbArc
 50
135
 51
180
  0
LINE
  5
A59
330
A02
100
AcDbEntity
  8
Sketch001
100
AcDbLine
 10
32
 20
4
 30
0
 11
32
 21
7.11422
 31
0
  0
LINE
  5
A5A
330
A02
100
AcDbEntity
  8
Sketch001
100
AcDbLine
 10
32
 20
1.53595
 30
0
 11
32
 21
4
 31
0
  0
ARC
  5
A5B
330
A02
100
AcDbEntity
  8
Sketch001
100
AcDbCircle
 10
51.3242
 20
0.675831
 30
0
 40
0.675831
100
AcDbArc
 50
-90
 51
-9.41228e-15
  0
LINE
  5
A5C
330
A02
100
AcDbEntity
  8
Sketch001
100
AcDbLine
 10
52
 20
0.675831
 30
0
 11
52
 21
19.2
 31
0
  0
ARC
  5
A5D
330
A02
100
AcDbEntity
  8
Sketch001
100
AcDbCircle
 10
51.2
 20
19.2
 30
0
 40
0.799953
100
AcDbArc
 50
0
 51
90
  0
LINE
  5
A5E
330
A02
100
AcDbEntity
  8
Sketch001
100
AcDbLine
 10
48.8417
 20
20
 30
0
 11
51.2
 21
20
 31
0
  0
ARC
  5
A5F
330
A02
100
AcDbEntity
  8
Sketch001
100
AcDbCircle
 10
48.8417
 20
19.1583
 30
0
 40
0.84169
100
AcDbArc
 50
90
 51
180
  0
LINE
  5
A60
330
A02
100
AcDbEntity
  8
Sketch001
100
AcDbLine
 10
48
 20
2
 30
0
 11
48
 21
19.1583
 31
0
  0
LINE
  5
A61
330
A02
100
AcDbEntity
  8
Sketch001
100
AcDbLine
 10
48
 20
0.903751
 30
0
 11
48
 21
2
 31
0
  0
ARC
  5
A62
330
A02
100
AcDbEntity
  8
Sketch001
100
AcDbCircle
 10
48.9038
 20
0.903751
 30
0
 40
0.903751
100
AcDbArc
 50
180
 51
-90
  0
LINE
  5
A63
330
A02
100
AcDbEntity
  8
Sketch001
100
AcDbLine
 10
51.3242
 20
0
 30
0
 11
48.9038
 21
0
 31
0
  0
ARC
  5
A64
330
A02
100
AcDbEntity
  8
Sketch001
100
AcDbCircle
 10
28.9592
 20
24.9592
 30
0
 40
0.959194
100
AcDbArc
 50
180
 51
-90
  0
LINE
  5
A65
330
A02
100
AcDbEntity
  8
Sketch001
100
AcDbLine
 10
28.9592
 20
24
 30
0
 11
37.0791
 21
24
 31
0
  0
ARC
  5
A66
330
A02
100
AcDbEntity
  8
Sketch001
100
AcDbCircle
 10
37.0791
 20
26.2233
 30
0
 40
2.22332
100
AcDbArc
 50
-90
 51
-45
  0
LINE
  5
A67
330
A02
100
AcDbEntity
  8
Sketch001
100
AcDbLine
 10
38.6512
 20
24.6512
 30
0
 11
39.5267
 21
25.5267
 31
0
  0
ARC
  5
A68
330
A02
100
AcDbEntity
  8
Sketch001
100
AcDbCircle
 10
38.384
 20
26.6694
 30
0
 40
1.61604
100
AcDbArc
 50
-45
 51
0
  0
LINE
  5
A69
330
A02
100
AcDbEntity
  8
Sketch001
100
AcDbLine
 10
40
 20
26.6694
 30
0
 11
40
 21
33.2235
 31
0
  0
ARC
  5
A6A
330
A02
100
AcDbEntity
  8
Sketch001
100
AcDbCircle
 10
38.674
 20
33.2235
 30
0
 40
1.32601
100
AcDbArc
 50
0
 51
60.7037
  0
LINE
  5
A6B
330
A02
100
AcDbEntity
  8
Sketch001
100
AcDbLine
 10
39.3228
 20
34.3799
 30
0
 11
37.2287
 21
35.5549
 31
0
  0
ARC
  5
A6C
330
A02
100
AcDbEntity
  8
Sketch001
100
AcDbCircle
 10
35.5259
 20
32.52
 30
0
 40
3.47997
100
AcDbArc
 50
60.7037
 51
90
  0
LINE
  5
A6D
330
A02
100
AcDbEntity
  8
Sketch001
100
AcDbLine
 10
35.5259
 20
36
 30
0
 11
32.9299
 21
36
 31
0
  0
ARC
  5
A6E
330
A02
100
AcDbEntity
  8
Sketch001
100
AcDbCircle
 10
32.9299
 20
36.9299
 30
0
 40
0.929867
100
AcDbArc
 50
180
 51
-90
  0
LINE
  5
A6F
330
A02
100
AcDbEntity
  8
Sketch001
100
AcDbLine
 10
32
 20
36.9299
 30
0
 11
32
 21
39.0973
 31
0
  0
ARC
  5
A70
330
A02
100
AcDbEntity
  8
Sketch001
100
AcDbCircle
 10
32.9027
 20
39.0973
 30
0
 40
0.902664
100
AcDbArc
 50
90
 51
180
  0
LINE
  5
A71
330
A02
100
AcDbEntity
  8
Sketch001
100
AcDbLine
 10
32.9027
 20
40
 30
0
 11
38
 21
40
 31
0
  0
LINE
  5
A72
330
A02
100
AcDbEntity
  8
Sketch001
100
AcDbLine
 10
38
 20
40
 30
0
 11
38
 21
44
 31
0
  0
LINE
  5
A73
330
A02
100
AcDbEntity
  8
Sketch001
100
AcDbLine
 10
38
 20
44
 30
0
 11
30.959
 21
44
 31
0
  0
ARC
  5
A74
330
A02
100
AcDbEntity
  8
Sketch001
100
AcDbCircle
 10
30.959
 20
41.6848
 30
0
 40
2.31523
100
AcDbArc
 50
90
 51
135
  0
LINE
  5
A75
330
A02
100
AcDbEntity
  8
Sketch001
100
AcDbLine
 10
29.3219
 20
43.3219
 30
0
 11
28.7104
 21
42.7104
 31
0
  0
ARC
  5
A76
330
A02
100
AcDbEntity
  8
Sketch001
100
AcDbCircle
 10
30.4254
 20
40.9954
 30
0
 40
2.42542
100
AcDbArc
 50
135
 51
180
  0
LINE
  5
A77
330
A02
100
AcDbEntity
  8
Sketch001
100
AcDbLine
 10
28
 20
40.9954
 30
0
 11
28
 21
36
 31
0
  0
LINE
  5
A78
330
A02
100
AcDbEntity
  8
Sketch001
100
AcDbLine
 10
28
 20
26
 30
0
 11
28
 21
36
 31
0
  0
LINE
  5
A79
330
A02
100
AcDbEntity
  8
Sketch001
100
AcDbLine
 10
28
 20
24.9592
 30
0
 11
28
 21
26
 31
0
  0
LINE
  5
A7A
330
A02
100
AcDbEntity
  8
Sketch001
100
AcDbLine
 10
32
 20
31.2807
 30
0
 11
32
 21
28.8316
 31
0
  0
ARC
  5
A7B
330
A02
100
AcDbEntity
  8
Sketch001
100
AcDbCircle
 10
32.8316
 20
28.8316
 30
0
 40
0.831625
100
AcDbArc
 50
180
 51
-90
  0
LINE
  5
A7C
330
A02
100
AcDbEntity
  8
Sketch001
100
AcDbLine
 10
32.8316
 20
28
 30
0
 11
35.2091
 21
28
 31
0
  0
ARC
  5
A7D
330
A02
100
AcDbEntity
  8
Sketch001
100
AcDbCircle
 10
35.2091
 20
28.7909
 30
0
 40
0.790916
100
AcDbArc
 50
-90
 51
0
  0
LINE
  5
A7E
330
A02
100
AcDbEntity
  8
Sketch001
100
AcDbLine
 10
36
 20
28.7909
 30
0
 11
36
 21
31.211
 31
0
  0
ARC
  5
A7F
330
A02
100
AcDbEntity
  8
Sketch001
100
AcDbCircle
 10
35.211
 20
31.211
 30
0
 40
0.789003
100
AcDbArc
 50
0
 51
90
  0
LINE
  5
A80
330
A02
100
AcDbEntity
  8
Sketch001
100
AcDbLine
 10
35.211
 20
32
 30
0
 11
32.7193
 21
32
 31
0
  0
ARC
  5
A81
330
A02
100
AcDbEntity
  8
Sketch001
100
AcDbCircle
 10
32.7193
 20
31.2807
 30
0
 40
0.719288
100
AcDbArc
 50
90
 51
180
  0
CIRCLE
  5
A82
330
A02
100
AcDbEntity
  8
Sketch001
100
AcDbCircle
 10
34
 20
10
 40
0
  0
CIRCLE
  5
A83
330
A02
100
AcDbEntity
  8
Sketch001
100
AcDbCircle
 10
34
 20
10
 40
0
  0
CIRCLE
  5
A84
330
A02
100
AcDbEntity
  8
Sketch001
100
AcDbCircle
 10
34
 20
10
 40
0
  0
CIRCLE
  5
A85
330
A02
100
AcDbEntity
  8
Sketch001
100
AcDbCircle
 10
34
 20
10
 40
0
  0
CIRCLE
  5
A86
330
A02
100
AcDbEntity
  8
Sketch001
100
AcDbCircle
 10
34
 20
10
 40
0
  0
CIRCLE
  5
A87
330
A02
100
AcDbEntity
  8
Sketch001
100
AcDbCircle
 10
34
 20
10
 40
0
  0
LINE
  5
A88
330
A02
100
AcDbEntity
  8
Sketch001
100
AcDbLine
 10
12
 20
36.4776
 30
0
 11
12
 21
44.0246
 31
0
  0
LINE
  5
A89
330
A02
100
AcDbEntity
  8
Sketch001
100
AcDbLine
 10
12
 20
44.0246
 30
0
 11
8
 21
44.0246
 31
0
  0
LINE
  5
A8A
330
A02
100
AcDbEntity
  8
Sketch001
100
AcDbLine
 10
8
 20
44.0246
 30
0
 11
8
 21
33.3697
 31
0
  0
ARC
  5
A8B
330
A02
100
AcDbEntity
  8
Sketch001
100
AcDbCircle
 10
9.34516
 20
33.3697
 30
0
 40
1.34516
100
AcDbArc
 50
180
 51
-90
  0
LINE
  5
A8C
330
A02
100
AcDbEntity
  8
Sketch001
100
AcDbLine
 10
9.34516
 20
32.0246
 30
0
 11
13.1196
 21
32.0246
 31
0
  0
ARC
  5
A8D
330
A02
100
AcDbEntity
  8
Sketch001
100
AcDbCircle
 10
13.1196
 20
31.1442
 30
0
 40
0.880383
100
AcDbArc
 50
0
 51
90
  0
LINE
  5
A8E
330
A02
100
AcDbEntity
  8
Sketch001
100
AcDbLine
 10
14
 20
31.1442
 30
0
 11
14
 21
24
 31
0
  0
LINE
  5
A8F
330
A02
100
AcDbEntity
  8
Sketch001
100
AcDbLine
 10
14
 20
24
 30
0
 11
17.3452
 21
24
 31
0
  0
LINE
  5
A90
330
A02
100
AcDbEntity
  8
Sketch001
100
AcDbLine
 10
17.3452
 20
24
 30
0
 11
17.3452
 21
31.1608
 31
0
  0
ARC
  5
A91
330
A02
100
AcDbEntity
  8
Sketch001
100
AcDbCircle
 10
18.447
 20
31.1608
 30
0
 40
1.10188
100
AcDbArc
 50
90
 51
180
  0
LINE
  5
A92
330
A02
100
AcDbEntity
  8
Sketch001
100
AcDbLine
 10
18.447
 20
32.2627
 30
0
 11
20
 21
32.2627
 31
0
  0
LINE
  5
A93
330
A02
100
AcDbEntity
  8
Sketch001
100
AcDbLine
 10
20
 20
32.2627
 30
0
 11
20
 21
36.0246
 31
0
  0
LINE
  5
A94
330
A02
100
AcDbEntity
  8
Sketch001
100
AcDbLine
 10
20
 20
36.0246
 30
0
 11
18.823
 21
36.0246
 31
0
  0
ARC
  5
A95
330
A02
100
AcDbEntity
  8
Sketch001
100
AcDbCircle
 10
18.823
 20
36.8476
 30
0
 40
0.823
100
AcDbArc
 50
180
 51
-90
  0
LINE
  5
A96
330
A02
100
AcDbEntity
  8
Sketch001
100
AcDbLine
 10
18
 20
36.8476
 30
0
 11
18
 21
40.0246
 31
0
  0
LINE
  5
A97
330
A02
100
AcDbEntity
  8
Sketch001
100
AcDbLine
 10
18
 20
40.0246
 30
0
 11
14
 21
40.0246
 31
0
  0
LINE
  5
A98
330
A02
100
AcDbEntity
  8
Sketch001
100
AcDbLine
 10
14
 20
40.0246
 30
0
 11
14
 21
36.9476
 31
0
  0
ARC
  5
A99
330
A02
100
AcDbEntity
  8
Sketch001
100
AcDbCircle
 10
13.0769
 20
36.9476
 30
0
 40
0.923073
100
AcDbArc
 50
-90
 51
0
  0
LINE
  5
A9A
330
A02
100
AcDbEntity
  8
Sketch001
100
AcDbLine
 10
13.0769
 20
36.0246
 30
0
 11
12.4531
 21
36.0246
 31
0
  0
ARC
  5
A9B
330
A02
100
AcDbEntity
  8
Sketch001
100
AcDbCircle
 10
12.4531
 20
36.4776
 30
0
 40
0.453074
100
AcDbArc
 50
180
 51
-90
  0
LINE
  5
A9C
330
A02
100
AcDbEntity
  8
Sketch001
100
AcDbLine
 10
54
 20
18.9053
 30
0
 11
54
 21
1.42133
 31
0
  0
ARC
  5
A9D
330
A02
100
AcDbEntity
  8
Sketch001
100
AcDbCircle
 10
55.4213
 20
1.42133
 30
0
 40
1.42133
100
AcDbArc
 50
180
 51
-90
  0
LINE
  5
A9E
330
A02
100
AcDbEntity
  8
Sketch001
100
AcDbLine
 10
55.4213
 20
0
 30
0
 11
58
 21
0
 31
0
  0
LINE
  5
A9F
330
A02
100
AcDbEntity
  8
Sketch001
100
AcDbLine
 10
58
 20
0
 30
0
 11
65.2144
 21
0
 31
0
  0
ARC
  5
AA0
330
A02
100
AcDbEntity
  8
Sketch001
100
AcDbCircle
 10
65.2144
 20
0.785622
 30
0
 40
0.785622
100
AcDbArc
 50
-90
 51
-1.61938e-14
  0
LINE
  5
AA1
330
A02
100
AcDbEntity
  8
Sketch001
100
AcDbLine
 10
66
 20
0.785622
 30
0
 11
66
 21
19.249
 31
0
  0
ARC
  5
AA2
330
A02
100
AcDbEntity
  8
Sketch001
100
AcDbCircle
 10
65.249
 20
19.249
 30
0
 40
0.750974
100
AcDbArc
 50
0
 51
90
  0
LINE
  5
AA3
330
A02
100
AcDbEntity
  8
Sketch001
100
AcDbLine
 10
65.249
 20
20
 30
0
 11
55.0947
 21
20
 31
0
  0
ARC
  5
AA4
330
A02
100
AcDbEntity
  8
Sketch001
100
AcDbCircle
 10
55.0947
 20
18.9053
 30
0
 40
1.09471
100
AcDbArc
 50
90
 51
180
  0
ARC
  5
AA5
330
A02
100
AcDbEntity
  8
Sketch001
100
AcDbCircle
 10
58.7365
 20
13.2635
 30
0
 40
0.736497
100
AcDbArc
 50
90
 51
180
  0
LINE
  5
AA6
330
A02
100
AcDbEntity
  8
Sketch001
100
AcDbLine
 10
58
 20
13.2635
 30
0
 11
58
 21
6.91367
 31
0
  0
ARC
  5
AA7
330
A02
100
AcDbEntity
  8
Sketch001
100
AcDbCircle
 10
58.9137
 20
6.91367
 30
0
 40
0.913673
100
AcDbArc
 50
180
 51
-90
  0
LINE
  5
AA8
330
A02
100
AcDbEntity
  8
Sketch001
100
AcDbLine
 10
61.2879
 20
6
 30
0
 11
58.9137
 21
6
 31
0
  0
ARC
  5
AA9
330
A02
100
AcDbEntity
  8
Sketch001
100
AcDbCircle
 10
61.2879
 20
6.71206
 30
0
 40
0.712065
100
AcDbArc
 50
-90
 51
0
  0
LINE
  5
AAA
330
A02
100
AcDbEntity
  8
Sketch001
100
AcDbLine
 10
62
 20
6.71206
 30
0
 11
62
 21
13.1487
 31
0
  0
ARC
  5
AAB
330
A02
100
AcDbEntity
  8
Sketch001
100
AcDbCircle
 10
61.1487
 20
13.1487
 30
0
 40
0.851314
100
AcDbArc
 50
0
 51
90
  0
LINE
  5
AAC
330
A02
100
AcDbEntity
  8
Sketch001
100
AcDbLine
 10
58.7365
 20
14
 30
0
 11
61.1487
 21
14
 31
0
  0
ARC
  5
AAD
330
A02
100
AcDbEntity
  8
Sketch001
100
AcDbCircle
 10
5.32417
 20
24.6758
 30
0
 40
0.675831
100
AcDbArc
 50
-90
 51
0
  0
LINE
  5
AAE
330
A02
100
AcDbEntity
  8
Sketch001
100
AcDbLine
 10
6
 20
24.6758
 30
0
 11
6
 21
43.2
 31
0
  0
ARC
  5
AAF
330
A02
100
AcDbEntity
  8
Sketch001
100
AcDbCircle
 10
5.20005
 20
43.2
 30
0
 40
0.799953
100
AcDbArc
 50
0
 51
90
  0
LINE
  5
AB0
330
A02
100
AcDbEntity
  8
Sketch001
100
AcDbLine
 10
2.84169
 20
44
 30
0
 11
5.20005
 21
44
 31
0
  0
ARC
  5
AB1
330
A02
100
AcDbEntity
  8
Sketch001
100
AcDbCircle
 10
2.84169
 20
43.1583
 30
0
 40
0.84169
100
AcDbArc
 50
90
 51
180
  0
LINE
  5
AB2
330
A02
100
AcDbEntity
  8
Sketch001
100
AcDbLine
 10
2
 20
26
 30
0
 11
2
 21
43.1583
 31
0
  0
LINE
  5
AB3
330
A02
100
AcDbEntity
  8
Sketch001
100
AcDbLine
 10
2
 20
24.9038
 30
0
 11
2
 21
26
 31
0
  0
ARC
  5
AB4
330
A02
100
AcDbEntity
  8
Sketch001
100
AcDbCircle
 10
2.90375
 20
24.9038
 30
0
 40
0.903751
100
AcDbArc
 50
180
 51
-90
  0
LINE
  5
AB5
330
A02
100
AcDbEntity
  8
Sketch001
100
AcDbLine
 10
5.32417
 20
24
 30
0
 11
2.90375
 21
24
 31
0
  0
ARC
  5
AB6
330
A02
100
AcDbEntity
  8
Sketch001
100
AcDbCircle
 10
25.3242
 20
24.6758
 30
0
 40
0.675831
100
AcDbArc
 50
-90
 51
0
  0
LINE
  5
AB7
330
A02
100
AcDbEntity
  8
Sketch001
100
AcDbLine
 10
26
 20
24.6758
 30
0
 11
26
 21
43.2
 31
0
  0
ARC
  5
AB8
330
A02
100
AcDbEntity
  8
Sketch001
100
AcDbCircle
 10
25.2
 20
43.2
 30
0
 40
0.799953
100
AcDbArc
 50
0
 51
90
  0
LINE
  5
AB9
330
A02
100
AcDbEntity
  8
Sketch001
100
AcDbLine
 10
22.8417
 20
44
 30
0
 11
25.2
 21
44
 31
0
  0
ARC
  5
ABA
330
A02
100
AcDbEntity
  8
Sketch001
100
AcDbCircle
 10
22.8417
 20
43.1583
 30
0
 40
0.84169
100
AcDbArc
 50
90
 51
180
  0
LINE
  5
ABB
330
A02
100
AcDbEntity
  8
Sketch001
100
AcDbLine
 10
22
 20
26
 30
0
 11
22
 21
43.1583
 31
0
  0
LINE
  5
ABC
330
A02
100
AcDbEntity
  8
Sketch001
100
AcDbLine
 10
22
 20
24.9038
 30
0
 11
22
 21
26
 31
0
  0
ARC
  5
ABD
330
A02
100
AcDbEntity
  8
Sketch001
100
AcDbCircle
 10
22.9038
 20
24.9038
 30
0
 40
0.903751
100
AcDbArc
 50
180
 51
-90
  0
LINE
  5
ABE
330
A02
100
AcDbEntity
  8
Sketch001
100
AcDbLine
 10
25.3242
 20
24
 30
0
 11
22.9038
 21
24
 31
0
  0
LINE
  5
ABF
330
A02
100
AcDbEntity
  8
Sketch001
100
AcDbLine
 10
45.4912
 20
36
 30
0
 11
50.8492
 21
36
 31
0
  0
ARC
  5
AC0
330
A02
100
AcDbEntity
  8
Sketch001
100
AcDbCircle
 10
50.8492
 20
37.1508
 30
0
 40
1.15085
100
AcDbArc
 50
-90
 51
0
  0
LINE
  5
AC1
330
A02
100
AcDbEntity
  8
Sketch001
100
AcDbLine
 10
52
 20
37.1508
 30
0
 11
52
 21
39.0908
 31
0
  0
ARC
  5
AC2
330
A02
100
AcDbEntity
  8
Sketch001
100
AcDbCircle
 10
51.0908
 20
39.0908
 30
0
 40
0.909176
100
AcDbArc
 50
0
 51
90
  0
LINE
  5
AC3
330
A02
100
AcDbEntity
  8
Sketch001
100
AcDbLine
 10
51.0908
 20
40
 30
0
 11
44
 21
40
 31
0
  0
LINE
  5
AC4
330
A02
100
AcDbEntity
  8
Sketch001
100
AcDbLine
 10
44
 20
40
 30
0
 11
44
 21
44
 31
0
  0
LINE
  5
AC5
330
A02
100
AcDbEntity
  8
Sketch001
100
AcDbLine
 10
44
 20
44
 30
0
 11
54
 21
44
 31
0
  0
ARC
  5
AC6
330
A02
100
AcDbEntity
  8
Sketch001
100
AcDbCircle
 10
54
 20
42
 30
0
 40
2
100
AcDbArc
 50
0
 51
90
  0
LINE
  5
AC7
330
A02
100
AcDbEntity
  8
Sketch001
100
AcDbLine
 10
56
 20
42
 30
0
 11
56
 21
33.2506
 31
0
  0
ARC
  5
AC8
330
A02
100
AcDbEntity
  8
Sketch001
100
AcDbCircle
 10
54.7494
 20
33.2506
 30
0
 40
1.25058
100
AcDbArc
 50
-90
 51
0
  0
LINE
  5
AC9
330
A02
100
AcDbEntity
  8
Sketch001
100
AcDbLine
 10
54.7494
 20
32
 30
0
 11
49.0724
 21
32
 31
0
  0
ARC
  5
ACA
330
A02
100
AcDbEntity
  8
Sketch001
100
AcDbCircle
 10
49.0724
 20
30.9276
 30
0
 40
1.07244
100
AcDbArc
 50
90
 51
180
  0
LINE
  5
ACB
330
A02
100
AcDbEntity
  8
Sketch001
100
AcDbLine
 10
48
 20
30.9276
 30
0
 11
48
 21
28.9595
 31
0
  0
ARC
  5
ACC
330
A02
100
AcDbEntity
  8
Sketch001
100
AcDbCircle
 10
48.9595
 20
28.9595
 30
0
 40
0.959526
100
AcDbArc
 50
180
 51
-90
  0
LINE
  5
ACD
330
A02
100
AcDbEntity
  8
Sketch001
100
AcDbLine
 10
48.9595
 20
28
 30
0
 11
56
 21
28
 31
0
  0
LINE
  5
ACE
330
A02
100
AcDbEntity
  8
Sketch001
100
AcDbLine
 10
56
 20
28
 30
0
 11
56
 21
24
 31
0
  0
LINE
  5
ACF
330
A02
100
AcDbEntity
  8
Sketch001
100
AcDbLine
 10
56
 20
24
 30
0
 11
46.4526
 21
24
 31
0
  0
ARC
  5
AD0
330
A02
100
AcDbEntity
  8
Sketch001
100
AcDbCircle
 10
46.4526
 20
26.4526
 30
0
 40
2.45259
100
AcDbArc
 50
180
 51
-90
  0
LINE
  5
AD1
330
A02
100
AcDbEntity
  8
Sketch001
100
AcDbLine
 10
44
 20
26.4526
 30
0
 11
44
 21
28
 31
0
  0
LINE
  5
AD2
330
A02
100
AcDbEntity
  8
Sketch001
100
AcDbLine
 10
44
 20
28
 30
0
 11
44
 21
34.5088
 31
0
  0
ARC
  5
AD3
330
A02
100
AcDbEntity
  8
Sketch001
100
AcDbCircle
 10
45.4912
 20
34.5088
 30
0
 40
1.49122
100
AcDbArc
 50
90
 51
180
  0
LINE
  5
AD4
330
A02
100
AcDbEntity
  8
Sketch001
100
AcDbLine
 10
58
 20
42.9053
 30
0
 11
58
 21
25.4213
 31
0
  0
ARC
  5
AD5
330
A02
100
AcDbEntity
  8
Sketch001
100
AcDbCircle
 10
59.4213
 20
25.4213
 30
0
 40
1.42133
100
AcDbArc
 50
180
 51
-90
  0
LINE
  5
AD6
330
A02
100
AcDbEntity
  8
Sketch001
100
AcDbLine
 10
59.4213
 20
24
 30
0
 11
62
 21
24
 31
0
  0
LINE
  5
AD7
330
A02
100
AcDbEntity
  8
Sketch001
100
AcDbLine
 10
62
 20
24
 30
0
 11
69.2144
 21
24
 31
0
  0
ARC
  5
AD8
330
A02
100
AcDbEntity
  8
Sketch001
100
AcDbCircle
 10
69.2144
 20
24.7856
 30
0
 40
0.785622
100
AcDbArc
 50
-90
 51
0
  0
LINE
  5
AD9
330
A02
100
AcDbEntity
  8
Sketch001
100
AcDbLine
 10
70
 20
24.7856
 30
0
 11
70
 21
43.249
 31
0
  0
ARC
  5
ADA
330
A02
100
AcDbEntity
  8
Sketch001
100
AcDbCircle
 10
69.249
 20
43.249
 30
0
 40
0.750974
100
AcDbArc
 50
0
 51
90
  0
LINE
  5
ADB
330
A02
100
AcDbEntity
  8
Sketch001
100
AcDbLine
 10
69.249
 20
44
 30
0
 11
59.0947
 21
44
 31
0
  0
ARC
  5
ADC
330
A02
100
AcDbEntity
  8
Sketch001
100
AcDbCircle
 10
59.0947
 20
42.9053
 30
0
 40
1.09471
100
AcDbArc
 50
90
 51
180
  0
ARC
  5
ADD
330
A02
100
AcDbEntity
  8
Sketch001
100
AcDbCircle
 10
62.7365
 20
37.2635
 30
0
 40
0.736497
100
AcDbArc
 50
90
 51
180
  0
LINE
  5
ADE
330
A02
100
AcDbEntity
  8
Sketch001
100
AcDbLine
 10
62
 20
37.2635
 30
0
 11
62
 21
30.9137
 31
0
  0
ARC
  5
ADF
330
A02
100
AcDbEntity
  8
Sketch001
100
AcDbCircle
 10
62.9137
 20
30.9137
 30
0
 40
0.913673
100
AcDbArc
 50
180
 51
-90
  0
LINE
  5
AE0
330
A02
100
AcDbEntity
  8
Sketch001
100
AcDbLine
 10
65.2879
 20
30
 30
0
 11
62.9137
 21
30
 31
0
  0
ARC
  5
AE1
330
A02
100
AcDbEntity
  8
Sketch001
100
AcDbCircle
 10
65.2879
 20
30.7121
 30
0
 40
0.712065
100
AcDbArc
 50
-90
 51
0
  0
LINE
  5
AE2
330
A02
100
AcDbEntity
  8
Sketch001
100
AcDbLine
 10
66
 20
30.7121
 30
0
 11
66
 21
37.1487
 31
0
  0
ARC
  5
AE3
330
A02
100
AcDbEntity
  8
Sketch001
100
AcDbCircle
 10
65.1487
 20
37.1487
 30
0
 40
0.851314
100
AcDbArc
 50
0
 51
90
  0
LINE
  5
AE4
330
A02
100
AcDbEntity
  8
Sketch001
100
AcDbLine
 10
62.7365
 20
38
 30
0
 11
65.1487
 21
38
 31
0
  0
LINE
  5
AE5
330
A02
100
AcDbEntity
  8
Sketch001
100
AcDbLine
 10
75.4912
 20
36
 30
0
 11
80.8492
 21
36
 31
0
  0
ARC
  5
AE6
330
A02
100
AcDbEntity
  8
Sketch001
100
AcDbCircle
 10
80.8492
 20
37.1508
 30
0
 40
1.15085
100
AcDbArc
 50
-90
 51
0
  0
LINE
  5
AE7
330
A02
100
AcDbEntity
  8
Sketch001
100
AcDbLine
 10
82
 20
37.1508
 30
0
 11
82
 21
39.0908
 31
0
  0
ARC
  5
AE8
330
A02
100
AcDbEntity
  8
Sketch001
100
AcDbCircle
 10
81.0908
 20
39.0908
 30
0
 40
0.909176
100
AcDbArc
 50
0
 51
90
  0
LINE
  5
AE9
330
A02
100
AcDbEntity
  8
Sketch001
100
AcDbLine
 10
81.0908
 20
40
 30
0
 11
74
 21
40
 31
0
  0
LINE
  5
AEA
330
A02
100
AcDbEntity
  8
Sketch001
100
AcDbLine
 10
74
 20
40
 30
0
 11
74
 21
44
 31
0
  0
LINE
  5
AEB
330
A02
100
AcDbEntity
  8
Sketch001
100
AcDbLine
 10
74
 20
44
 30
0
 11
84
 21
44
 31
0
  0
ARC
  5
AEC
330
A02
100
AcDbEntity
  8
Sketch001
100
AcDbCircle
 10
84
 20
42
 30
0
 40
2
100
AcDbArc
 50
0
 51
90
  0
LINE
  5
AED
330
A02
100
AcDbEntity
  8
Sketch001
100
AcDbLine
 10
86
 20
42
 30
0
 11
86
 21
33.2506
 31
0
  0
ARC
  5
AEE
330
A02
100
AcDbEntity
  8
Sketch001
100
AcDbCircle
 10
84.7494
 20
33.2506
 30
0
 40
1.25058
100
AcDbArc
 50
-90
 51
0
  0
LINE
  5
AEF
330
A02
100
AcDbEntity
  8
Sketch001
100
AcDbLine
 10
84.7494
 20
32
 30
0
 11
79.0724
 21
32
 31
0
  0
ARC
  5
AF0
330
A02
100
AcDbEntity
  8
Sketch001
100
AcDbCircle
 10
79.0724
 20
30.9276
 30
0
 40
1.07244
100
AcDbArc
 50
90
 51
180
  0
LINE
  5
AF1
330
A02
100
AcDbEntity
  8
Sketch001
100
AcDbLine
 10
78
 20
30.9276
 30
0
 11
78
 21
28.9595
 31
0
  0
ARC
  5
AF2
330
A02
100
AcDbEntity
  8
Sketch001
100
AcDbCircle
 10
78.9595
 20
28.9595
 30
0
 40
0.959526
100
AcDbArc
 50
180
 51
-90
  0
LINE
  5
AF3
330
A02
100
AcDbEntity
  8
Sketch001
100
AcDbLine
 10
78.9595
 20
28
 30
0
 11
86
 21
28
 31
0
  0
LINE
  5
AF4
330
A02
100
AcDbEntity
  8
Sketch001
100
AcDbLine
 10
86
 20
28
 30
0
 11
86
 21
24
 31
0
  0
LINE
  5
AF5
330
A02
100
AcDbEntity
  8
Sketch001
100
AcDbLine
 10
86
 20
24
 30
0
 11
76.4526
 21
24
 31
0
  0
ARC
  5
AF6
330
A02
100
AcDbEntity
  8
Sketch001
100
AcDbCircle
 10
76.4526
 20
26.4526
 30
0
 40
2.45259
100
AcDbArc
 50
180
 51
-90
  0
LINE
  5
AF7
330
A02
100
AcDbEntity
  8
Sketch001
100
AcDbLine
 10
74
 20
26.4526
 30
0
 11
74
 21
28
 31
0
  0
LINE
  5
AF8
330
A02
100
AcDbEntity
  8
Sketch001
100
AcDbLine
 10
74
 20
28
 30
0
 11
74
 21
34.5088
 31
0
  0
ARC
  5
AF9
330
A02
100
AcDbEntity
  8
Sketch001
100
AcDbCircle
 10
75.4912
 20
34.5088
 30
0
 40
1.49122
100
AcDbArc
 50
90
 51
180
  0
LINE
  5
AFA
330
A02
100
AcDbEntity
  8
Sketch001
100
AcDbLine
 10
89.4912
 20
36
 30
0
 11
94.8492
 21
36
 31
0
  0
ARC
  5
AFB
330
A02
100
AcDbEntity
  8
Sketch001
100
AcDbCircle
 10
94.8492
 20
37.1508
 30
0
 40
1.15085
100
AcDbArc
 50
-90
 51
0
  0
LINE
  5
AFC
330
A02
100
AcDbEntity
  8
Sketch001
100
AcDbLine
 10
96
 20
37.1508
 30
0
 11
96
 21
39.0908
 31
0
  0
ARC
  5
AFD
330
A02
100
AcDbEntity
  8
Sketch001
100
AcDbCircle
 10
95.0908
 20
39.0908
 30
0
 40
0.909176
100
AcDbArc
 50
0
 51
90
  0
LINE
  5
AFE
330
A02
100
AcDbEntity
  8
Sketch001
100
AcDbLine
 10
95.0908
 20
40
 30
0
 11
88
 21
40
 31
0
  0
LINE
  5
AFF
330
A02
100
AcDbEntity
  8
Sketch001
100
AcDbLine
 10
88
 20
40
 30
0
 11
88
 21
44
 31
0
  0
LINE
  5
B00
330
A02
100
AcDbEntity
  8
Sketch001
100
AcDbLine
 10
88
 20
44
 30
0
 11
98
 21
44
 31
0
  0
ARC
  5
B01
330
A02
100
AcDbEntity
  8
Sketch001
100
AcDbCircle
 10
98
 20
42
 30
0
 40
2
100
AcDbArc
 50
0
 51
90
  0
LINE
  5
B02
330
A02
100
AcDbEntity
  8
Sketch001
100
AcDbLine
 10
100
 20
42
 30
0
 11
100
 21
33.2506
 31
0
  0
ARC
  5
B03
330
A02
100
AcDbEntity
  8
Sketch001
100
AcDbCircle
 10
98.7494
 20
33.2506
 30
0
 40
1.25058
100
AcDbArc
 50
-90
 51
0
  0
LINE
  5
B04
330
A02
100
AcDbEntity
  8
Sketch001
100
AcDbLine
 10
98.7494
 20
32
 30
0
 11
93.0724
 21
32
 31
0
  0
ARC
  5
B05
330
A02
100
AcDbEntity
  8
Sketch001
100
AcDbCircle
 10
93.0724
 20
30.9276
 30
0
 40
1.07244
100
AcDbArc
 50
90
 51
180
  0
LINE
  5
B06
330
A02
100
AcDbEntity
  8
Sketch001
100
AcDbLine
 10
92
 20
30.9276
 30
0
 11
92
 21
28.9595
 31
0
  0
ARC
  5
B07
330
A02
100
AcDbEntity
  8
Sketch001
100
AcDbCircle
 10
92.9595
 20
28.9595
 30
0
 40
0.959526
100
AcDbArc
 50
180
 51
-90
  0
LINE
  5
B08
330
A02
100
AcDbEntity
  8
Sketch001
100
AcDbLine
 10
92.9595
 20
28
 30
0
 11
100
 21
28
 31
0
  0
LINE
  5
B09
330
A02
100
AcDbEntity
  8
Sketch001
100
AcDbLine
 10
100
 20
28
 30
0
 11
100
 21
24
 31
0
  0
LINE
  5
B0A
330
A02
100
AcDbEntity
  8
Sketch001
100
AcDbLine
 10
100
 20
24
 30
0
 11
90.4526
 21
24
 31
0
  0
ARC
  5
B0B
330
A02
100
AcDbEntity
  8
Sketch001
100
AcDbCircle
 10
90.4526
 20
26.4526
 30
0
 40
2.45259
100
AcDbArc
 50
180
 51
-90
  0
LINE
  5
B0C
330
A02
100
AcDbEntity
  8
Sketch001
100
AcDbLine
 10
88
 20
26.4526
 30
0
 11
88
 21
28
 31
0
  0
LINE
  5
B0D
330
A02
100
AcDbEntity
  8
Sketch001
100
AcDbLine
 10
88
 20
28
 30
0
 11
88
 21
34.5088
 31
0
  0
ARC
  5
B0E
330
A02
100
AcDbEntity
  8
Sketch001
100
AcDbCircle
 10
89.4912
 20
34.5088
 30
0
 40
1.49122
100
AcDbArc
 50
90
 51
180
  0
ENDSEC
  0
SECTION
  2
OBJECTS
  0
DICTIONARY
  5
F000
330
0
100
AcDbDictionary
  3
ACAD_GROUP
350
F001
  0
DICTIONARY
  5
F001
330
F000
100
AcDbDictionary
  0
ENDSEC
  0
EOF